<?xml version="1.0" encoding="utf-8" standalone="no"?>
<!DOCTYPE svg PUBLIC "-//W3C//DTD SVG 1.1//EN"
  "http://www.w3.org/Graphics/SVG/1.1/DTD/svg11.dtd">
<svg xmlns:xlink="http://www.w3.org/1999/xlink" width="576pt" height="432pt" viewBox="0 0 576 432" xmlns="http://www.w3.org/2000/svg" version="1.1">
 <metadata>
  <rdf:RDF xmlns:dc="http://purl.org/dc/elements/1.1/" xmlns:cc="http://creativecommons.org/ns#" xmlns:rdf="http://www.w3.org/1999/02/22-rdf-syntax-ns#">
   <cc:Work>
    <dc:type rdf:resource="http://purl.org/dc/dcmitype/StillImage"/>
    <dc:date>2024-11-13T19:22:57.088584</dc:date>
    <dc:format>image/svg+xml</dc:format>
    <dc:creator>
     <cc:Agent>
      <dc:title>Matplotlib v3.6.3, https://matplotlib.org/</dc:title>
     </cc:Agent>
    </dc:creator>
   </cc:Work>
  </rdf:RDF>
 </metadata>
 <defs>
  <style type="text/css">*{stroke-linejoin: round; stroke-linecap: butt}</style>
 </defs>
 <g id="figure_1">
  <g id="patch_1">
   <path d="M 0 432 
L 576 432 
L 576 0 
L 0 0 
z
" style="fill: #ffffff"/>
  </g>
  <g id="axes_1">
   <g id="patch_2">
    <path d="M 471.145487 47.380206 
Q 268.689973 60.993032 86.144995 143.454159 
" clip-path="url(#p6960164a34)" style="fill: none; stroke: #000000; stroke-width: 2; stroke-linecap: round"/>
    <path d="M 92.848004 143.718096 
L 86.144995 143.454159 
L 90.37795 138.250114 
L 92.848004 143.718096 
z
" clip-path="url(#p6960164a34)" style="stroke: #000000; stroke-width: 2; stroke-linecap: round"/>
   </g>
   <g id="patch_3">
    <path d="M 517.802671 252.344803 
Q 521.517926 154.757376 492.878541 63.791726 
" clip-path="url(#p6960164a34)" style="fill: none; stroke: #000000; stroke-width: 2; stroke-linecap: round"/>
    <path d="M 491.818844 70.415701 
L 492.878541 63.791726 
L 497.541903 68.613869 
L 491.818844 70.415701 
z
" clip-path="url(#p6960164a34)" style="stroke: #000000; stroke-width: 2; stroke-linecap: round"/>
   </g>
   <g id="patch_4">
    <path d="M 502.989634 268.010765 
Q 315.591599 289.209123 149.943152 373.985048 
" clip-path="url(#p6960164a34)" style="fill: none; stroke: #000000; stroke-width: 2; stroke-linecap: round"/>
    <path d="M 156.65106 373.922118 
L 149.943152 373.985048 
L 153.917552 368.580963 
L 156.65106 373.922118 
z
" clip-path="url(#p6960164a34)" style="stroke: #000000; stroke-width: 2; stroke-linecap: round"/>
   </g>
   <g id="patch_5">
    <path d="M 504.18534 260.62035 
Q 304.6238 170.920695 88.912341 157.65503 
" clip-path="url(#p6960164a34)" style="fill: none; stroke: #000000; stroke-width: 2; stroke-linecap: round"/>
    <path d="M 94.716883 161.017661 
L 88.912341 157.65503 
L 95.085171 155.028974 
L 94.716883 161.017661 
z
" clip-path="url(#p6960164a34)" style="stroke: #000000; stroke-width: 2; stroke-linecap: round"/>
   </g>
   <g id="patch_6">
    <path d="M 125.254083 362.973588 
Q 112.743714 267.636898 72.388992 182.967742 
" clip-path="url(#p6960164a34)" style="fill: none; stroke: #000000; stroke-width: 2; stroke-linecap: round"/>
    <path d="M 72.262341 189.67475 
L 72.388992 182.967742 
L 77.678608 187.093267 
L 72.262341 189.67475 
z
" clip-path="url(#p6960164a34)" style="stroke: #000000; stroke-width: 2; stroke-linecap: round"/>
   </g>
   <g id="PathCollection_1">
    <path d="M 487.175334 62.469253 
C 491.433443 62.469253 495.517724 60.777489 498.528662 57.766551 
C 501.5396 54.755613 503.231364 50.671332 503.231364 46.413223 
C 503.231364 42.155114 501.5396 38.070833 498.528662 35.059895 
C 495.517724 32.048958 491.433443 30.357193 487.175334 30.357193 
C 482.917225 30.357193 478.832944 32.048958 475.822006 35.059895 
C 472.811069 38.070833 471.119304 42.155114 471.119304 46.413223 
C 471.119304 50.671332 472.811069 54.755613 475.822006 57.766551 
C 478.832944 60.777489 482.917225 62.469253 487.175334 62.469253 
z
" clip-path="url(#p6960164a34)" style="fill: #ffd700; stroke: #ffd700"/>
    <path d="M 517.090909 280.693638 
C 520.852489 280.693638 524.460511 279.199146 527.12035 276.539307 
C 529.780189 273.879469 531.27468 270.271447 531.27468 266.509867 
C 531.27468 262.748286 529.780189 259.140265 527.12035 256.480426 
C 524.460511 253.820587 520.852489 252.326095 517.090909 252.326095 
C 513.329329 252.326095 509.721307 253.820587 507.061468 256.480426 
C 504.40163 259.140265 502.907138 262.748286 502.907138 266.509867 
C 502.907138 270.271447 504.40163 273.879469 507.061468 276.539307 
C 509.721307 279.199146 513.329329 280.693638 517.090909 280.693638 
z
" clip-path="url(#p6960164a34)" style="fill: #ffd700; stroke: #ffd700"/>
    <path d="M 127.804796 408.346369 
C 133.84071 408.346369 139.630222 405.948275 143.898258 401.680239 
C 148.166294 397.412203 150.564388 391.622691 150.564388 385.586777 
C 150.564388 379.550862 148.166294 373.761351 143.898258 369.493315 
C 139.630222 365.225279 133.84071 362.827185 127.804796 362.827185 
C 121.768881 362.827185 115.97937 365.225279 111.711334 369.493315 
C 107.443298 373.761351 105.045204 379.550862 105.045204 385.586777 
C 105.045204 391.622691 107.443298 397.412203 111.711334 401.680239 
C 115.97937 405.948275 121.768881 408.346369 127.804796 408.346369 
z
" clip-path="url(#p6960164a34)" style="fill: #ffd700; stroke: #ffd700"/>
    <path d="M 58.909091 183.92587 
C 66.282622 183.92587 73.355145 180.996335 78.569019 175.782461 
C 83.782893 170.568587 86.712428 163.496064 86.712428 156.122532 
C 86.712428 148.749001 83.782893 141.676478 78.569019 136.462604 
C 73.355145 131.24873 66.282622 128.319195 58.909091 128.319195 
C 51.53556 128.319195 44.463037 131.24873 39.249163 136.462604 
C 34.035289 141.676478 31.105754 148.749001 31.105754 156.122532 
C 31.105754 163.496064 34.035289 170.568587 39.249163 175.782461 
C 44.463037 180.996335 51.53556 183.92587 58.909091 183.92587 
z
" clip-path="url(#p6960164a34)" style="fill: #ffd700; stroke: #ffd700"/>
   </g>
   <g id="text_1">
    <g clip-path="url(#p6960164a34)">
     <!-- I -->
     <g transform="translate(485.405334 49.724473) scale(0.12 -0.12)">
      <defs>
       <path id="DejaVuSans-49" d="M 628 4666 
L 1259 4666 
L 1259 0 
L 628 0 
L 628 4666 
z
" transform="scale(0.015625)"/>
      </defs>
      <use xlink:href="#DejaVuSans-49"/>
     </g>
    </g>
   </g>
   <g id="text_2">
    <g clip-path="url(#p6960164a34)">
     <!-- am -->
     <g transform="translate(507.569659 269.821117) scale(0.12 -0.12)">
      <defs>
       <path id="DejaVuSans-61" d="M 2194 1759 
Q 1497 1759 1228 1600 
Q 959 1441 959 1056 
Q 959 750 1161 570 
Q 1363 391 1709 391 
Q 2188 391 2477 730 
Q 2766 1069 2766 1631 
L 2766 1759 
L 2194 1759 
z
M 3341 1997 
L 3341 0 
L 2766 0 
L 2766 531 
Q 2569 213 2275 61 
Q 1981 -91 1556 -91 
Q 1019 -91 701 211 
Q 384 513 384 1019 
Q 384 1609 779 1909 
Q 1175 2209 1959 2209 
L 2766 2209 
L 2766 2266 
Q 2766 2663 2505 2880 
Q 2244 3097 1772 3097 
Q 1472 3097 1187 3025 
Q 903 2953 641 2809 
L 641 3341 
Q 956 3463 1253 3523 
Q 1550 3584 1831 3584 
Q 2591 3584 2966 3190 
Q 3341 2797 3341 1997 
z
" transform="scale(0.015625)"/>
       <path id="DejaVuSans-6d" d="M 3328 2828 
Q 3544 3216 3844 3400 
Q 4144 3584 4550 3584 
Q 5097 3584 5394 3201 
Q 5691 2819 5691 2113 
L 5691 0 
L 5113 0 
L 5113 2094 
Q 5113 2597 4934 2840 
Q 4756 3084 4391 3084 
Q 3944 3084 3684 2787 
Q 3425 2491 3425 1978 
L 3425 0 
L 2847 0 
L 2847 2094 
Q 2847 2600 2669 2842 
Q 2491 3084 2119 3084 
Q 1678 3084 1418 2786 
Q 1159 2488 1159 1978 
L 1159 0 
L 581 0 
L 581 3500 
L 1159 3500 
L 1159 2956 
Q 1356 3278 1631 3431 
Q 1906 3584 2284 3584 
Q 2666 3584 2933 3390 
Q 3200 3197 3328 2828 
z
" transform="scale(0.015625)"/>
      </defs>
      <use xlink:href="#DejaVuSans-61"/>
      <use xlink:href="#DejaVuSans-6d" x="61.279297"/>
     </g>
    </g>
   </g>
   <g id="text_3">
    <g clip-path="url(#p6960164a34)">
     <!-- happy -->
     <g transform="translate(109.156046 388.898027) scale(0.12 -0.12)">
      <defs>
       <path id="DejaVuSans-68" d="M 3513 2113 
L 3513 0 
L 2938 0 
L 2938 2094 
Q 2938 2591 2744 2837 
Q 2550 3084 2163 3084 
Q 1697 3084 1428 2787 
Q 1159 2491 1159 1978 
L 1159 0 
L 581 0 
L 581 4863 
L 1159 4863 
L 1159 2956 
Q 1366 3272 1645 3428 
Q 1925 3584 2291 3584 
Q 2894 3584 3203 3211 
Q 3513 2838 3513 2113 
z
" transform="scale(0.015625)"/>
       <path id="DejaVuSans-70" d="M 1159 525 
L 1159 -1331 
L 581 -1331 
L 581 3500 
L 1159 3500 
L 1159 2969 
Q 1341 3281 1617 3432 
Q 1894 3584 2278 3584 
Q 2916 3584 3314 3078 
Q 3713 2572 3713 1747 
Q 3713 922 3314 415 
Q 2916 -91 2278 -91 
Q 1894 -91 1617 61 
Q 1341 213 1159 525 
z
M 3116 1747 
Q 3116 2381 2855 2742 
Q 2594 3103 2138 3103 
Q 1681 3103 1420 2742 
Q 1159 2381 1159 1747 
Q 1159 1113 1420 752 
Q 1681 391 2138 391 
Q 2594 391 2855 752 
Q 3116 1113 3116 1747 
z
" transform="scale(0.015625)"/>
       <path id="DejaVuSans-79" d="M 2059 -325 
Q 1816 -950 1584 -1140 
Q 1353 -1331 966 -1331 
L 506 -1331 
L 506 -850 
L 844 -850 
Q 1081 -850 1212 -737 
Q 1344 -625 1503 -206 
L 1606 56 
L 191 3500 
L 800 3500 
L 1894 763 
L 2988 3500 
L 3597 3500 
L 2059 -325 
z
" transform="scale(0.015625)"/>
      </defs>
      <use xlink:href="#DejaVuSans-68"/>
      <use xlink:href="#DejaVuSans-61" x="63.378906"/>
      <use xlink:href="#DejaVuSans-70" x="124.658203"/>
      <use xlink:href="#DejaVuSans-70" x="188.134766"/>
      <use xlink:href="#DejaVuSans-79" x="251.611328"/>
     </g>
    </g>
   </g>
   <g id="text_4">
    <g clip-path="url(#p6960164a34)">
     <!-- S Node -->
     <g transform="translate(37.532216 159.433782) scale(0.12 -0.12)">
      <defs>
       <path id="DejaVuSans-53" d="M 3425 4513 
L 3425 3897 
Q 3066 4069 2747 4153 
Q 2428 4238 2131 4238 
Q 1616 4238 1336 4038 
Q 1056 3838 1056 3469 
Q 1056 3159 1242 3001 
Q 1428 2844 1947 2747 
L 2328 2669 
Q 3034 2534 3370 2195 
Q 3706 1856 3706 1288 
Q 3706 609 3251 259 
Q 2797 -91 1919 -91 
Q 1588 -91 1214 -16 
Q 841 59 441 206 
L 441 856 
Q 825 641 1194 531 
Q 1563 422 1919 422 
Q 2459 422 2753 634 
Q 3047 847 3047 1241 
Q 3047 1584 2836 1778 
Q 2625 1972 2144 2069 
L 1759 2144 
Q 1053 2284 737 2584 
Q 422 2884 422 3419 
Q 422 4038 858 4394 
Q 1294 4750 2059 4750 
Q 2388 4750 2728 4690 
Q 3069 4631 3425 4513 
z
" transform="scale(0.015625)"/>
       <path id="DejaVuSans-20" transform="scale(0.015625)"/>
       <path id="DejaVuSans-4e" d="M 628 4666 
L 1478 4666 
L 3547 763 
L 3547 4666 
L 4159 4666 
L 4159 0 
L 3309 0 
L 1241 3903 
L 1241 0 
L 628 0 
L 628 4666 
z
" transform="scale(0.015625)"/>
       <path id="DejaVuSans-6f" d="M 1959 3097 
Q 1497 3097 1228 2736 
Q 959 2375 959 1747 
Q 959 1119 1226 758 
Q 1494 397 1959 397 
Q 2419 397 2687 759 
Q 2956 1122 2956 1747 
Q 2956 2369 2687 2733 
Q 2419 3097 1959 3097 
z
M 1959 3584 
Q 2709 3584 3137 3096 
Q 3566 2609 3566 1747 
Q 3566 888 3137 398 
Q 2709 -91 1959 -91 
Q 1206 -91 779 398 
Q 353 888 353 1747 
Q 353 2609 779 3096 
Q 1206 3584 1959 3584 
z
" transform="scale(0.015625)"/>
       <path id="DejaVuSans-64" d="M 2906 2969 
L 2906 4863 
L 3481 4863 
L 3481 0 
L 2906 0 
L 2906 525 
Q 2725 213 2448 61 
Q 2172 -91 1784 -91 
Q 1150 -91 751 415 
Q 353 922 353 1747 
Q 353 2572 751 3078 
Q 1150 3584 1784 3584 
Q 2172 3584 2448 3432 
Q 2725 3281 2906 2969 
z
M 947 1747 
Q 947 1113 1208 752 
Q 1469 391 1925 391 
Q 2381 391 2643 752 
Q 2906 1113 2906 1747 
Q 2906 2381 2643 2742 
Q 2381 3103 1925 3103 
Q 1469 3103 1208 2742 
Q 947 2381 947 1747 
z
" transform="scale(0.015625)"/>
       <path id="DejaVuSans-65" d="M 3597 1894 
L 3597 1613 
L 953 1613 
Q 991 1019 1311 708 
Q 1631 397 2203 397 
Q 2534 397 2845 478 
Q 3156 559 3463 722 
L 3463 178 
Q 3153 47 2828 -22 
Q 2503 -91 2169 -91 
Q 1331 -91 842 396 
Q 353 884 353 1716 
Q 353 2575 817 3079 
Q 1281 3584 2069 3584 
Q 2775 3584 3186 3129 
Q 3597 2675 3597 1894 
z
M 3022 2063 
Q 3016 2534 2758 2815 
Q 2500 3097 2075 3097 
Q 1594 3097 1305 2825 
Q 1016 2553 972 2059 
L 3022 2063 
z
" transform="scale(0.015625)"/>
      </defs>
      <use xlink:href="#DejaVuSans-53"/>
      <use xlink:href="#DejaVuSans-20" x="63.476562"/>
      <use xlink:href="#DejaVuSans-4e" x="95.263672"/>
      <use xlink:href="#DejaVuSans-6f" x="170.068359"/>
      <use xlink:href="#DejaVuSans-64" x="231.25"/>
      <use xlink:href="#DejaVuSans-65" x="294.726562"/>
     </g>
    </g>
   </g>
  </g>
 </g>
 <defs>
  <clipPath id="p6960164a34">
   <rect x="10.8" y="10.8" width="554.4" height="410.4"/>
  </clipPath>
 </defs>
</svg>
