<?xml version="1.0" encoding="utf-8" standalone="no"?>
<!DOCTYPE svg PUBLIC "-//W3C//DTD SVG 1.1//EN"
  "http://www.w3.org/Graphics/SVG/1.1/DTD/svg11.dtd">
<svg xmlns:xlink="http://www.w3.org/1999/xlink" width="576pt" height="432pt" viewBox="0 0 576 432" xmlns="http://www.w3.org/2000/svg" version="1.1">
 <metadata>
  <rdf:RDF xmlns:dc="http://purl.org/dc/elements/1.1/" xmlns:cc="http://creativecommons.org/ns#" xmlns:rdf="http://www.w3.org/1999/02/22-rdf-syntax-ns#">
   <cc:Work>
    <dc:type rdf:resource="http://purl.org/dc/dcmitype/StillImage"/>
    <dc:date>2024-11-13T19:28:48.614601</dc:date>
    <dc:format>image/svg+xml</dc:format>
    <dc:creator>
     <cc:Agent>
      <dc:title>Matplotlib v3.6.3, https://matplotlib.org/</dc:title>
     </cc:Agent>
    </dc:creator>
   </cc:Work>
  </rdf:RDF>
 </metadata>
 <defs>
  <style type="text/css">*{stroke-linejoin: round; stroke-linecap: butt}</style>
 </defs>
 <g id="figure_1">
  <g id="patch_1">
   <path d="M 0 432 
L 576 432 
L 576 0 
L 0 0 
z
" style="fill: #ffffff"/>
  </g>
  <g id="axes_1">
   <g id="patch_2">
    <path d="M 504.737149 377.694596 
Q 402.667613 305.746598 284.383205 273.909636 
" clip-path="url(#p4b0f436325)" style="fill: none; stroke: #000000; stroke-width: 2; stroke-linecap: round"/>
    <path d="M 289.39729 278.365974 
L 284.383205 273.909636 
L 290.956727 272.572171 
L 289.39729 278.365974 
z
" clip-path="url(#p4b0f436325)" style="stroke: #000000; stroke-width: 2; stroke-linecap: round"/>
   </g>
   <g id="patch_3">
    <path d="M 359.090473 107.59978 
Q 408.388886 255.06936 505.636091 373.478259 
" clip-path="url(#p4b0f436325)" style="fill: none; stroke: #000000; stroke-width: 2; stroke-linecap: round"/>
    <path d="M 504.146402 366.937554 
L 505.636091 373.478259 
L 499.509713 370.745587 
L 504.146402 366.937554 
z
" clip-path="url(#p4b0f436325)" style="stroke: #000000; stroke-width: 2; stroke-linecap: round"/>
   </g>
   <g id="patch_4">
    <path d="M 367.687771 94.242305 
Q 431.72581 86.125833 488.157561 60.618086 
" clip-path="url(#p4b0f436325)" style="fill: none; stroke: #000000; stroke-width: 2; stroke-linecap: round"/>
    <path d="M 481.45449 60.355708 
L 488.157561 60.618086 
L 483.925816 65.823116 
L 481.45449 60.355708 
z
" clip-path="url(#p4b0f436325)" style="stroke: #000000; stroke-width: 2; stroke-linecap: round"/>
   </g>
   <g id="patch_5">
    <path d="M 342.93541 92.849471 
Q 210.268441 63.687267 78.127808 82.353078 
" clip-path="url(#p4b0f436325)" style="fill: none; stroke: #000000; stroke-width: 2; stroke-linecap: round"/>
    <path d="M 84.488435 84.484377 
L 78.127808 82.353078 
L 83.649223 78.543356 
L 84.488435 84.484377 
z
" clip-path="url(#p4b0f436325)" style="stroke: #000000; stroke-width: 2; stroke-linecap: round"/>
   </g>
   <g id="patch_6">
    <path d="M 347.40017 105.515979 
Q 296.311508 171.897081 270.605674 249.096954 
" clip-path="url(#p4b0f436325)" style="fill: none; stroke: #000000; stroke-width: 2; stroke-linecap: round"/>
    <path d="M 275.347572 244.352019 
L 270.605674 249.096954 
L 269.654865 242.456475 
L 275.347572 244.352019 
z
" clip-path="url(#p4b0f436325)" style="stroke: #000000; stroke-width: 2; stroke-linecap: round"/>
   </g>
   <g id="patch_7">
    <path d="M 491.376471 61.867904 
Q 367.150508 139.43777 277.103598 252.51643 
" clip-path="url(#p4b0f436325)" style="fill: none; stroke: #000000; stroke-width: 2; stroke-linecap: round"/>
    <path d="M 283.188042 249.691622 
L 277.103598 252.51643 
L 278.494418 245.95399 
L 283.188042 249.691622 
z
" clip-path="url(#p4b0f436325)" style="stroke: #000000; stroke-width: 2; stroke-linecap: round"/>
   </g>
   <g id="patch_8">
    <path d="M 69.403535 98.886008 
Q 145.047115 194.728067 246.764901 258.065356 
" clip-path="url(#p4b0f436325)" style="fill: none; stroke: #000000; stroke-width: 2; stroke-linecap: round"/>
    <path d="M 243.25734 252.347226 
L 246.764901 258.065356 
L 240.08586 257.440527 
L 243.25734 252.347226 
z
" clip-path="url(#p4b0f436325)" style="stroke: #000000; stroke-width: 2; stroke-linecap: round"/>
   </g>
   <g id="PathCollection_1">
    <path d="M 515.715987 399.103769 
C 519.300735 399.103769 522.739144 397.679534 525.273944 395.144734 
C 527.808744 392.609934 529.232979 389.171525 529.232979 385.586777 
C 529.232979 382.002029 527.808744 378.56362 525.273944 376.02882 
C 522.739144 373.49402 519.300735 372.069784 515.715987 372.069784 
C 512.131238 372.069784 508.692829 373.49402 506.15803 376.02882 
C 503.62323 378.56362 502.198994 382.002029 502.198994 385.586777 
C 502.198994 389.171525 503.62323 392.609934 506.15803 395.144734 
C 508.692829 397.679534 512.131238 399.103769 515.715987 399.103769 
z
" clip-path="url(#p4b0f436325)" style="fill: #4682b4; stroke: #4682b4"/>
    <path d="M 355.190008 108.220748 
C 358.524669 108.220748 361.7232 106.895873 364.081161 104.537911 
C 366.439122 102.17995 367.763997 98.981419 367.763997 95.646759 
C 367.763997 92.312098 366.439122 89.113567 364.081161 86.755606 
C 361.7232 84.397644 358.524669 83.07277 355.190008 83.07277 
C 351.855347 83.07277 348.656817 84.397644 346.298855 86.755606 
C 343.940894 89.113567 342.616019 92.312098 342.616019 95.646759 
C 342.616019 98.981419 343.940894 102.17995 346.298855 104.537911 
C 348.656817 106.895873 351.855347 108.220748 355.190008 108.220748 
z
" clip-path="url(#p4b0f436325)" style="fill: #4682b4; stroke: #4682b4"/>
    <path d="M 517.090909 76.412439 
C 525.046794 76.412439 532.677898 73.251533 538.303558 67.625872 
C 543.929219 62.000212 547.090125 54.369108 547.090125 46.413223 
C 547.090125 38.457338 543.929219 30.826234 538.303558 25.200574 
C 532.677898 19.574914 525.046794 16.414007 517.090909 16.414007 
C 509.135024 16.414007 501.50392 19.574914 495.87826 25.200574 
C 490.2526 30.826234 487.091693 38.457338 487.091693 46.413223 
C 487.091693 54.369108 490.2526 62.000212 495.87826 67.625872 
C 501.50392 73.251533 509.135024 76.412439 517.090909 76.412439 
z
" clip-path="url(#p4b0f436325)" style="fill: #4682b4; stroke: #4682b4"/>
    <path d="M 58.909091 102.457949 
C 63.470162 102.457949 67.845038 100.645817 71.070202 97.420652 
C 74.295366 94.195488 76.107499 89.820612 76.107499 85.259541 
C 76.107499 80.69847 74.295366 76.323595 71.070202 73.09843 
C 67.845038 69.873266 63.470162 68.061133 58.909091 68.061133 
C 54.34802 68.061133 49.973144 69.873266 46.74798 73.09843 
C 43.522816 76.323595 41.710683 80.69847 41.710683 85.259541 
C 41.710683 89.820612 43.522816 94.195488 46.74798 97.420652 
C 49.973144 100.645817 54.34802 102.457949 58.909091 102.457949 
z
" clip-path="url(#p4b0f436325)" style="fill: #4682b4; stroke: #4682b4"/>
    <path d="M 264.402777 287.169445 
C 269.281704 287.169445 273.96146 285.231027 277.411382 281.781104 
C 280.861305 278.331182 282.799723 273.651426 282.799723 268.772499 
C 282.799723 263.893572 280.861305 259.213816 277.411382 255.763894 
C 273.96146 252.313972 269.281704 250.375553 264.402777 250.375553 
C 259.52385 250.375553 254.844094 252.313972 251.394172 255.763894 
C 247.944249 259.213816 246.005831 263.893572 246.005831 268.772499 
C 246.005831 273.651426 247.944249 278.331182 251.394172 281.781104 
C 254.844094 285.231027 259.52385 287.169445 264.402777 287.169445 
z
" clip-path="url(#p4b0f436325)" style="fill: #4682b4; stroke: #4682b4"/>
   </g>
   <g id="text_1">
    <g clip-path="url(#p4b0f436325)">
     <!-- I -->
     <g transform="translate(513.945987 388.898027) scale(0.12 -0.12)">
      <defs>
       <path id="DejaVuSans-49" d="M 628 4666 
L 1259 4666 
L 1259 0 
L 628 0 
L 628 4666 
z
" transform="scale(0.015625)"/>
      </defs>
      <use xlink:href="#DejaVuSans-49"/>
     </g>
    </g>
   </g>
   <g id="text_2">
    <g clip-path="url(#p4b0f436325)">
     <!-- am -->
     <g transform="translate(345.668758 98.958009) scale(0.12 -0.12)">
      <defs>
       <path id="DejaVuSans-61" d="M 2194 1759 
Q 1497 1759 1228 1600 
Q 959 1441 959 1056 
Q 959 750 1161 570 
Q 1363 391 1709 391 
Q 2188 391 2477 730 
Q 2766 1069 2766 1631 
L 2766 1759 
L 2194 1759 
z
M 3341 1997 
L 3341 0 
L 2766 0 
L 2766 531 
Q 2569 213 2275 61 
Q 1981 -91 1556 -91 
Q 1019 -91 701 211 
Q 384 513 384 1019 
Q 384 1609 779 1909 
Q 1175 2209 1959 2209 
L 2766 2209 
L 2766 2266 
Q 2766 2663 2505 2880 
Q 2244 3097 1772 3097 
Q 1472 3097 1187 3025 
Q 903 2953 641 2809 
L 641 3341 
Q 956 3463 1253 3523 
Q 1550 3584 1831 3584 
Q 2591 3584 2966 3190 
Q 3341 2797 3341 1997 
z
" transform="scale(0.015625)"/>
       <path id="DejaVuSans-6d" d="M 3328 2828 
Q 3544 3216 3844 3400 
Q 4144 3584 4550 3584 
Q 5097 3584 5394 3201 
Q 5691 2819 5691 2113 
L 5691 0 
L 5113 0 
L 5113 2094 
Q 5113 2597 4934 2840 
Q 4756 3084 4391 3084 
Q 3944 3084 3684 2787 
Q 3425 2491 3425 1978 
L 3425 0 
L 2847 0 
L 2847 2094 
Q 2847 2600 2669 2842 
Q 2491 3084 2119 3084 
Q 1678 3084 1418 2786 
Q 1159 2488 1159 1978 
L 1159 0 
L 581 0 
L 581 3500 
L 1159 3500 
L 1159 2956 
Q 1356 3278 1631 3431 
Q 1906 3584 2284 3584 
Q 2666 3584 2933 3390 
Q 3200 3197 3328 2828 
z
" transform="scale(0.015625)"/>
      </defs>
      <use xlink:href="#DejaVuSans-61"/>
      <use xlink:href="#DejaVuSans-6d" x="61.279297"/>
     </g>
    </g>
   </g>
   <g id="text_3">
    <g clip-path="url(#p4b0f436325)">
     <!-- not -->
     <g transform="translate(507.264972 49.724473) scale(0.12 -0.12)">
      <defs>
       <path id="DejaVuSans-6e" d="M 3513 2113 
L 3513 0 
L 2938 0 
L 2938 2094 
Q 2938 2591 2744 2837 
Q 2550 3084 2163 3084 
Q 1697 3084 1428 2787 
Q 1159 2491 1159 1978 
L 1159 0 
L 581 0 
L 581 3500 
L 1159 3500 
L 1159 2956 
Q 1366 3272 1645 3428 
Q 1925 3584 2291 3584 
Q 2894 3584 3203 3211 
Q 3513 2838 3513 2113 
z
" transform="scale(0.015625)"/>
       <path id="DejaVuSans-6f" d="M 1959 3097 
Q 1497 3097 1228 2736 
Q 959 2375 959 1747 
Q 959 1119 1226 758 
Q 1494 397 1959 397 
Q 2419 397 2687 759 
Q 2956 1122 2956 1747 
Q 2956 2369 2687 2733 
Q 2419 3097 1959 3097 
z
M 1959 3584 
Q 2709 3584 3137 3096 
Q 3566 2609 3566 1747 
Q 3566 888 3137 398 
Q 2709 -91 1959 -91 
Q 1206 -91 779 398 
Q 353 888 353 1747 
Q 353 2609 779 3096 
Q 1206 3584 1959 3584 
z
" transform="scale(0.015625)"/>
       <path id="DejaVuSans-74" d="M 1172 4494 
L 1172 3500 
L 2356 3500 
L 2356 3053 
L 1172 3053 
L 1172 1153 
Q 1172 725 1289 603 
Q 1406 481 1766 481 
L 2356 481 
L 2356 0 
L 1766 0 
Q 1100 0 847 248 
Q 594 497 594 1153 
L 594 3053 
L 172 3053 
L 172 3500 
L 594 3500 
L 594 4494 
L 1172 4494 
z
" transform="scale(0.015625)"/>
      </defs>
      <use xlink:href="#DejaVuSans-6e"/>
      <use xlink:href="#DejaVuSans-6f" x="63.378906"/>
      <use xlink:href="#DejaVuSans-74" x="124.560547"/>
     </g>
    </g>
   </g>
   <g id="text_4">
    <g clip-path="url(#p4b0f436325)">
     <!-- happy -->
     <g transform="translate(40.260341 88.570791) scale(0.12 -0.12)">
      <defs>
       <path id="DejaVuSans-68" d="M 3513 2113 
L 3513 0 
L 2938 0 
L 2938 2094 
Q 2938 2591 2744 2837 
Q 2550 3084 2163 3084 
Q 1697 3084 1428 2787 
Q 1159 2491 1159 1978 
L 1159 0 
L 581 0 
L 581 4863 
L 1159 4863 
L 1159 2956 
Q 1366 3272 1645 3428 
Q 1925 3584 2291 3584 
Q 2894 3584 3203 3211 
Q 3513 2838 3513 2113 
z
" transform="scale(0.015625)"/>
       <path id="DejaVuSans-70" d="M 1159 525 
L 1159 -1331 
L 581 -1331 
L 581 3500 
L 1159 3500 
L 1159 2969 
Q 1341 3281 1617 3432 
Q 1894 3584 2278 3584 
Q 2916 3584 3314 3078 
Q 3713 2572 3713 1747 
Q 3713 922 3314 415 
Q 2916 -91 2278 -91 
Q 1894 -91 1617 61 
Q 1341 213 1159 525 
z
M 3116 1747 
Q 3116 2381 2855 2742 
Q 2594 3103 2138 3103 
Q 1681 3103 1420 2742 
Q 1159 2381 1159 1747 
Q 1159 1113 1420 752 
Q 1681 391 2138 391 
Q 2594 391 2855 752 
Q 3116 1113 3116 1747 
z
" transform="scale(0.015625)"/>
       <path id="DejaVuSans-79" d="M 2059 -325 
Q 1816 -950 1584 -1140 
Q 1353 -1331 966 -1331 
L 506 -1331 
L 506 -850 
L 844 -850 
Q 1081 -850 1212 -737 
Q 1344 -625 1503 -206 
L 1606 56 
L 191 3500 
L 800 3500 
L 1894 763 
L 2988 3500 
L 3597 3500 
L 2059 -325 
z
" transform="scale(0.015625)"/>
      </defs>
      <use xlink:href="#DejaVuSans-68"/>
      <use xlink:href="#DejaVuSans-61" x="63.378906"/>
      <use xlink:href="#DejaVuSans-70" x="124.658203"/>
      <use xlink:href="#DejaVuSans-70" x="188.134766"/>
      <use xlink:href="#DejaVuSans-79" x="251.611328"/>
     </g>
    </g>
   </g>
   <g id="text_5">
    <g clip-path="url(#p4b0f436325)">
     <!-- S Node -->
     <g transform="translate(243.025902 272.083749) scale(0.12 -0.12)">
      <defs>
       <path id="DejaVuSans-53" d="M 3425 4513 
L 3425 3897 
Q 3066 4069 2747 4153 
Q 2428 4238 2131 4238 
Q 1616 4238 1336 4038 
Q 1056 3838 1056 3469 
Q 1056 3159 1242 3001 
Q 1428 2844 1947 2747 
L 2328 2669 
Q 3034 2534 3370 2195 
Q 3706 1856 3706 1288 
Q 3706 609 3251 259 
Q 2797 -91 1919 -91 
Q 1588 -91 1214 -16 
Q 841 59 441 206 
L 441 856 
Q 825 641 1194 531 
Q 1563 422 1919 422 
Q 2459 422 2753 634 
Q 3047 847 3047 1241 
Q 3047 1584 2836 1778 
Q 2625 1972 2144 2069 
L 1759 2144 
Q 1053 2284 737 2584 
Q 422 2884 422 3419 
Q 422 4038 858 4394 
Q 1294 4750 2059 4750 
Q 2388 4750 2728 4690 
Q 3069 4631 3425 4513 
z
" transform="scale(0.015625)"/>
       <path id="DejaVuSans-20" transform="scale(0.015625)"/>
       <path id="DejaVuSans-4e" d="M 628 4666 
L 1478 4666 
L 3547 763 
L 3547 4666 
L 4159 4666 
L 4159 0 
L 3309 0 
L 1241 3903 
L 1241 0 
L 628 0 
L 628 4666 
z
" transform="scale(0.015625)"/>
       <path id="DejaVuSans-64" d="M 2906 2969 
L 2906 4863 
L 3481 4863 
L 3481 0 
L 2906 0 
L 2906 525 
Q 2725 213 2448 61 
Q 2172 -91 1784 -91 
Q 1150 -91 751 415 
Q 353 922 353 1747 
Q 353 2572 751 3078 
Q 1150 3584 1784 3584 
Q 2172 3584 2448 3432 
Q 2725 3281 2906 2969 
z
M 947 1747 
Q 947 1113 1208 752 
Q 1469 391 1925 391 
Q 2381 391 2643 752 
Q 2906 1113 2906 1747 
Q 2906 2381 2643 2742 
Q 2381 3103 1925 3103 
Q 1469 3103 1208 2742 
Q 947 2381 947 1747 
z
" transform="scale(0.015625)"/>
       <path id="DejaVuSans-65" d="M 3597 1894 
L 3597 1613 
L 953 1613 
Q 991 1019 1311 708 
Q 1631 397 2203 397 
Q 2534 397 2845 478 
Q 3156 559 3463 722 
L 3463 178 
Q 3153 47 2828 -22 
Q 2503 -91 2169 -91 
Q 1331 -91 842 396 
Q 353 884 353 1716 
Q 353 2575 817 3079 
Q 1281 3584 2069 3584 
Q 2775 3584 3186 3129 
Q 3597 2675 3597 1894 
z
M 3022 2063 
Q 3016 2534 2758 2815 
Q 2500 3097 2075 3097 
Q 1594 3097 1305 2825 
Q 1016 2553 972 2059 
L 3022 2063 
z
" transform="scale(0.015625)"/>
      </defs>
      <use xlink:href="#DejaVuSans-53"/>
      <use xlink:href="#DejaVuSans-20" x="63.476562"/>
      <use xlink:href="#DejaVuSans-4e" x="95.263672"/>
      <use xlink:href="#DejaVuSans-6f" x="170.068359"/>
      <use xlink:href="#DejaVuSans-64" x="231.25"/>
      <use xlink:href="#DejaVuSans-65" x="294.726562"/>
     </g>
    </g>
   </g>
  </g>
 </g>
 <defs>
  <clipPath id="p4b0f436325">
   <rect x="10.8" y="10.8" width="554.4" height="410.4"/>
  </clipPath>
 </defs>
</svg>
